<?xml version='1.0' encoding='utf-8'?>
<svg width="32" height="32" viewBox="0 0 32 32" fill="none" xmlns="http://www.w3.org/2000/svg">
<rect width="32" height="32" rx="16" fill="#E6ECFF"/>
<path d="M22.1667 19.4167C21.125 19.4167 20.125 19.25 19.1917 18.9417C18.9 18.85 18.575 18.9167 18.3417 19.1417L16.5083 20.975C14.15 19.775 12.2167 17.85 11.0167 15.4917L12.85 13.65C13.0833 13.425 13.15 13.1 13.0583 12.8083C12.75 11.875 12.5833 10.875 12.5833 9.83333C12.5833 9.375 12.2083 9 11.75 9H8.83333C8.375 9 8 9.375 8 9.83333C8 17.6583 14.3417 24 22.1667 24C22.625 24 23 23.625 23 23.1667V20.25C23 19.7917 22.625 19.4167 22.1667 19.4167ZM15.5 9V17.3333L18 14.8333H23V9H15.5Z" fill="#3154C4"/>
</svg>
