<?xml version="1.0" encoding="iso-8859-1"?>
<!-- Generator: Adobe Illustrator 19.0.0, SVG Export Plug-In . SVG Version: 6.00 Build 0)  -->
<svg version="1.1" id="Capa_1" xmlns="http://www.w3.org/2000/svg" xmlns:xlink="http://www.w3.org/1999/xlink" x="0px" y="0px"
	 viewBox="0 0 512 512" style="enable-background:new 0 0 512 512;" xml:space="preserve">
<g>
	<g>
		<path d="M467,180H45c-24.853,0-45,20.147-45,45v182c0,24.853,20.147,45,45,45h45V332H75c-8.291,0-15-6.709-15-15
			c0-8.291,6.709-15,15-15c18.289,0,350.195,0,362,0c8.291,0,15,6.709,15,15c0,8.291-6.709,15-15,15h-15v120h45
			c24.853,0,45-20.147,45-45V225C512,200.147,491.853,180,467,180z M105,270H75c-8.291,0-15-6.709-15-15c0-8.291,6.709-15,15-15h30
			c8.291,0,15,6.709,15,15S113.291,270,105,270z"/>
	</g>
</g>
<g>
	<g>
		<path d="M120,332v165c0,8.284,6.716,15,15,15h242c8.284,0,15-6.716,15-15V332H120z M347,452H165c-8.291,0-15-6.709-15-15
			c0-8.291,6.709-15,15-15h182c8.291,0,15,6.709,15,15C362,445.291,355.291,452,347,452z M347,392H165c-8.291,0-15-6.709-15-15
			c0-8.291,6.709-15,15-15h182c8.291,0,15,6.709,15,15C362,385.291,355.291,392,347,392z"/>
	</g>
</g>
<g>
	<g>
		<path d="M452,92.763V150h30v-15C482,115.47,469.422,98.976,452,92.763z"/>
	</g>
</g>
<g>
	<g>
		<path d="M30,135v15h30V92.763C42.578,98.976,30,115.47,30,135z"/>
	</g>
</g>
<g>
	<g>
		<polygon points="332,8.789 332,90 413.211,90 		"/>
	</g>
</g>
<g>
	<g>
		<path d="M317,120c-8.291,0-15-6.709-15-15V0H105c-8.291,0-15,6.709-15,15c0,50.201,0,83.133,0,135h332v-30H317z"/>
	</g>
</g>
<g>
</g>
<g>
</g>
<g>
</g>
<g>
</g>
<g>
</g>
<g>
</g>
<g>
</g>
<g>
</g>
<g>
</g>
<g>
</g>
<g>
</g>
<g>
</g>
<g>
</g>
<g>
</g>
<g>
</g>
</svg>
