<?xml version="1.0" standalone="no"?>
<!DOCTYPE svg PUBLIC "-//W3C//DTD SVG 20010904//EN"
 "http://www.w3.org/TR/2001/REC-SVG-20010904/DTD/svg10.dtd">
<svg version="1.0" xmlns="http://www.w3.org/2000/svg"
 width="512.000000pt" height="512.000000pt" viewBox="0 0 512.000000 512.000000"
 preserveAspectRatio="xMidYMid meet">
<metadata>
Created by potrace 1.16, written by Peter Selinger 2001-2019
</metadata>
<g transform="translate(0.000000,512.000000) scale(0.100000,-0.100000)"
fill="#000000" stroke="none">
<path d="M1900 5108 c-49 -14 -134 -73 -166 -115 -15 -20 -38 -62 -51 -92 -22
-56 -23 -57 -23 -563 l0 -507 -472 -269 c-260 -148 -504 -285 -543 -306 -199
-104 -373 -326 -464 -593 -71 -207 -95 -397 -88 -681 4 -170 10 -227 30 -317
46 -203 107 -340 217 -485 161 -211 384 -346 687 -416 107 -24 142 -27 375
-32 l257 -5 3 -236 c3 -232 3 -237 30 -293 31 -68 95 -133 164 -168 l49 -25
1240 0 1240 0 55 26 c70 33 136 99 169 169 26 55 26 57 29 336 l3 282 93 4
c116 5 189 36 241 105 43 56 58 107 57 195 0 115 -62 214 -162 262 -43 20 -59
21 -400 21 -350 0 -356 0 -406 -23 -101 -46 -155 -130 -162 -251 -5 -103 20
-171 87 -234 66 -62 121 -77 278 -77 l123 0 0 -90 0 -90 -1240 0 -1240 0 0
1240 0 1240 117 77 c168 111 572 417 688 522 76 69 151 158 176 210 33 66 34
208 2 267 -67 126 -206 164 -370 102 -48 -18 -469 -243 -580 -310 l-33 -20 0
301 0 301 1240 0 1240 0 0 -554 0 -553 -132 -7 c-160 -8 -194 -17 -249 -59
-65 -50 -102 -124 -107 -216 -7 -128 46 -227 151 -284 41 -22 48 -22 412 -22
l370 0 48 25 c56 28 102 76 128 134 29 63 26 196 -5 261 -49 103 -130 151
-275 162 l-90 6 -3 701 -3 701 -26 55 c-33 70 -99 136 -169 169 l-55 26 -1225
2 c-789 1 -1237 -2 -1260 -9z m1617 -244 c27 -7 39 -40 23 -59 -11 -13 -72
-15 -389 -15 -280 0 -380 3 -389 12 -17 17 -15 45 6 57 18 11 710 15 749 5z
m-298 -4369 c68 -35 109 -119 91 -187 -41 -150 -242 -173 -309 -35 -26 55 -26
89 0 144 38 79 144 117 218 78z"/>
<path d="M4064 2746 c-28 -13 -67 -40 -87 -61 -112 -115 -99 -339 26 -437 70
-56 81 -57 467 -57 353 -1 355 -1 405 23 104 49 158 140 157 266 0 99 -27 166
-89 220 -77 68 -93 70 -482 70 -343 0 -346 0 -397 -24z"/>
<path d="M4082 2071 c-118 -41 -187 -152 -180 -291 5 -119 61 -206 162 -252
50 -23 56 -23 406 -23 341 0 357 1 400 21 59 28 108 77 136 139 19 40 24 67
23 130 0 44 -6 97 -13 117 -20 56 -69 111 -128 144 l-53 29 -350 2 c-320 3
-355 1 -403 -16z"/>
</g>
</svg>
